HIERARCHY
ROOT Hips
{
	OFFSET -3.958830 18.904000 13.208200
	CHANNELS 6 Xposition Yposition Zposition Zrotation Yrotation Xrotation 
	JOINT LHipJoint
	{
		OFFSET 0.000000 0.000000 0.000000
		CHANNELS 3 Zrotation Yrotation Xrotation
		JOINT LeftUpLeg
		{
			OFFSET 1.800000 -1.400000 0.085000
			CHANNELS 3 Zrotation Yrotation Xrotation
			JOINT LeftLeg
			{
				OFFSET 2.215000 -6.000000 0.000000
				CHANNELS 3 Zrotation Yrotation Xrotation
				JOINT LeftFoot
				{
					OFFSET 2.500000 -6.900000 0.000000
					CHANNELS 3 Zrotation Yrotation Xrotation
					JOINT LeftToeBase
					{
						OFFSET 0.200000 -0.500000 1.950000
						CHANNELS 3 Zrotation Yrotation Xrotation
						End Site
						{
							OFFSET 0.000000 0.000000 0.000000
						}
					}
				}
			}
		}
	}
	JOINT RHipJoint
	{
		OFFSET 0.000000 0.000000 0.000000
		CHANNELS 3 Zrotation Yrotation Xrotation
		JOINT RightUpLeg
		{
			OFFSET -1.800000 -1.400000 0.085000
			CHANNELS 3 Zrotation Yrotation Xrotation
			JOINT RightLeg
			{
				OFFSET -2.215000 -6.000000 0.000000
				CHANNELS 3 Zrotation Yrotation Xrotation
				JOINT RightFoot
				{
					OFFSET -2.500000 -6.900000 0.000000
					CHANNELS 3 Zrotation Yrotation Xrotation
					JOINT RightToeBase
					{
						OFFSET -0.200000 -0.500000 1.950000
						CHANNELS 3 Zrotation Yrotation Xrotation
						End Site
						{
							OFFSET 0.000000 0.000000 0.000000
						}
					}
				}
			}
		}
	}
	JOINT LowerBack
	{
		OFFSET 0.000000 0.000000 0.000000
		CHANNELS 3 Zrotation Yrotation Xrotation
		JOINT Spine
		{
			OFFSET -0.087000 1.940000 -0.288900
			CHANNELS 3 Zrotation Yrotation Xrotation
			JOINT Spine1
			{
				OFFSET 0.000000 1.950000 0.060000
				CHANNELS 3 Zrotation Yrotation Xrotation
				JOINT Neck
				{
					OFFSET 0.000000 0.000000 0.000000
					CHANNELS 3 Zrotation Yrotation Xrotation
					JOINT Neck1
					{
						OFFSET 0.000000 1.600000 0.340000
						CHANNELS 3 Zrotation Yrotation Xrotation
						JOINT Head
						{
							OFFSET 0.000000 1.667000 -0.240000
							CHANNELS 3 Zrotation Yrotation Xrotation
							End Site
							{
								OFFSET 0.000000 0.000000 0.000000
							}
						}
					}
				}
				JOINT LeftShoulder
				{
					OFFSET 0.000000 0.000000 0.000000
					CHANNELS 3 Zrotation Yrotation Xrotation
					JOINT LeftArm
					{
						OFFSET 2.700000 1.550000 -0.730000
						CHANNELS 3 Zrotation Yrotation Xrotation
						JOINT LeftForeArm
						{
							OFFSET 5.450000 0.000000 0.000000
							CHANNELS 3 Zrotation Yrotation Xrotation
							JOINT LeftHand
							{
								OFFSET 3.450000 0.000000 0.000000
								CHANNELS 3 Zrotation Yrotation Xrotation
								JOINT LeftHandIndex1
								{
									OFFSET 0.750000 0.000000 0.000000
									CHANNELS 3 Zrotation Yrotation Xrotation
									End Site
									{
										OFFSET 0.000000 0.000000 0.000000
									}
								}
							}
						}
					}
				}
				JOINT RightShoulder
				{
					OFFSET 0.000000 0.000000 0.000000
					CHANNELS 3 Zrotation Yrotation Xrotation
					JOINT RightArm
					{
						OFFSET -2.700000 1.550000 -0.730000
						CHANNELS 3 Zrotation Yrotation Xrotation
						JOINT RightForeArm
						{
							OFFSET -5.450000 0.000000 0.000000
							CHANNELS 3 Zrotation Yrotation Xrotation
							JOINT RightHand
							{
								OFFSET -3.450000 0.000000 0.000000
								CHANNELS 3 Zrotation Yrotation Xrotation
								JOINT RightHandIndex1
								{
									OFFSET -0.750000 0.000000 0.000000
									CHANNELS 3 Zrotation Yrotation Xrotation
									End Site
									{
										OFFSET 0.000000 0.000000 0.000000
									}
								}
							}
						}
					}
				}
			}
		}
	}
}
MOTION
Frames: 7
Frame Time: 0.016667
-1.875360 15.826100 -1.378970 -4.040045 0.901027 -13.681276 -16.328800 13.795168 3.508263 41.247848 -5.628533 -18.174966 0.763869 9.638823 32.273649 -0.715479 8.066371 1.293657 0.919940 0.422740 1.159140 17.509592 -8.234427 2.478239 -35.828969 -1.955112 -20.901221 16.420247 -21.121540 48.239404 -1.572630 -9.703400 0.817596 0.308460 -0.102830 0.348330 -0.877083 -7.247666 -8.383736 -26.029674 10.471210 23.794257 24.129579 3.862278 25.548812 -13.433023 -2.146328 -16.878179 -15.940864 11.719266 72.665961 -1.503780 16.324690 -17.866840 6.721141 -34.837433 -2.271429 -0.392021 -32.802647 -10.554405 43.666655 -54.027285 -23.715423 -3.600870 2.561471 1.115880 -0.027130 0.336240 -0.042660 19.835983 38.239797 16.532060 43.047805 25.285570 -9.764083 17.879458 30.983422 0.897049 1.607629 -1.421076 -0.280500 0.232660 -0.150600 -0.602440 
-2.132980 16.006660 -1.334980 -4.644867 -0.840701 -14.553437 -16.258348 14.294349 3.117922 39.115349 -4.404587 -13.452130 3.791414 7.771815 26.365637 -0.747999 7.388596 1.672529 0.790870 0.254130 1.062050 17.450787 -8.623173 2.208985 -31.646066 -0.884264 -18.816878 15.594354 -19.668373 46.953425 -1.434741 -9.266714 1.018834 0.234790 0.060620 0.321440 -0.887065 -7.245567 -7.968322 -28.485158 9.170699 19.526571 21.600884 4.722108 25.199385 -11.898600 -1.358793 -15.791433 -13.612479 11.608385 72.157982 -0.276660 16.181410 -14.607790 8.516086 -32.901843 -0.515134 -4.096280 -33.581258 -6.534423 28.519326 -39.884448 -12.154461 -3.596170 2.659281 1.098590 0.049540 0.245310 -0.010950 14.611442 36.881161 15.153144 44.357946 24.092947 -9.636527 31.881515 39.408241 4.852708 1.672850 -1.432517 -0.374610 0.323500 -0.092300 -0.579390 
-2.363880 16.170280 -1.296080 -5.521672 -3.372119 -14.535413 -16.193785 14.356110 3.090613 38.776669 -3.002862 -9.389925 3.909229 7.492295 21.625448 -0.517038 7.105969 1.879927 0.813920 0.299110 1.016350 17.456078 -8.908611 1.964620 -26.798525 0.466825 -17.764021 14.166843 -17.670411 45.999946 -1.324029 -8.707424 1.253918 0.212920 0.036420 0.269450 -0.971445 -6.778091 -7.730781 -28.704303 7.207627 16.114518 16.997194 4.860865 24.394902 -8.727566 -2.289968 -16.385803 -14.733973 13.006293 69.887925 0.624220 14.111580 -11.040960 8.722804 -30.575901 3.172539 -6.301385 -30.753710 -2.907916 22.123468 -28.976882 -7.041631 -3.487737 2.740071 1.001620 0.002360 0.231160 0.072540 8.396774 35.732100 13.898920 42.754104 25.100272 -7.168695 48.345851 46.677467 12.199491 1.929773 -1.572752 -0.303600 0.272430 -0.195860 -0.498120 
-2.557160 16.320910 -1.294980 -5.723872 -4.923986 -15.079522 -16.075294 14.319537 3.072708 38.176054 -1.806303 -6.609986 3.521976 7.529564 19.520813 -0.283859 6.982196 1.967614 0.837200 0.326240 0.985110 17.506368 -9.246614 1.872093 -23.951360 1.271773 -15.755771 13.763329 -16.274962 44.157258 -1.254268 -8.214485 1.448511 0.145130 -0.034940 0.286690 -1.196269 -6.015804 -7.645718 -28.031285 5.614687 15.515276 10.917962 4.465431 23.964301 -4.872886 -3.603648 -18.826905 -16.358103 14.469801 68.665063 0.943880 11.377400 -8.798400 7.841236 -29.895975 7.138683 -4.284969 -21.768247 -2.398150 16.859925 -22.928058 -3.984817 -3.408953 2.820509 0.949820 -0.069160 0.271980 0.107420 2.302804 36.174187 13.559496 34.426310 25.937858 -5.259038 66.350705 57.013130 25.275427 2.160208 -1.616968 -0.175090 0.169970 -0.260220 -0.419850 
-2.740390 16.458580 -1.285550 -5.551834 -5.984836 -14.731662 -15.886873 14.035853 3.094290 37.930714 -0.805710 -4.955952 1.657546 8.147889 19.026641 -0.115531 6.970735 1.962984 0.827930 0.306430 0.988670 17.623135 -9.623228 2.014554 -22.783490 1.823408 -14.828053 14.952518 -15.796469 41.766743 -1.267255 -7.809761 1.591156 0.034130 -0.165330 0.286390 -1.616278 -4.700732 -7.740369 -27.399625 4.589111 15.104401 5.379973 3.363484 21.577667 -0.845834 -3.268607 -22.756433 -14.980661 14.279413 73.857264 1.252980 9.238960 -7.771610 4.416559 -29.866880 10.745890 -0.626137 -11.092903 -1.731307 9.985187 -17.446071 -1.471265 -3.288163 2.665380 1.040090 -0.205060 0.399370 0.100020 -1.370913 35.712733 14.671480 24.799744 22.708044 -3.749052 88.401425 67.817929 46.326007 2.744088 -1.014061 -0.088740 0.111880 -0.295050 -0.392160 
-2.889920 16.580060 -1.310110 -4.877570 -11.251940 -18.168271 -15.789984 14.094336 3.177398 38.661726 1.021461 2.513490 -0.332386 9.245116 18.117433 0.415877 7.392729 1.946707 0.953180 0.535950 1.007260 17.657607 -9.909996 1.872595 -20.982440 2.920716 -11.665750 12.959939 -13.719580 41.147902 -1.317505 -7.308207 1.813029 0.004580 -0.282370 0.329260 -1.716349 -4.183201 -7.722732 -26.680478 5.342919 17.406973 2.371538 4.728184 23.087755 1.872586 -4.166233 -24.849336 -16.727014 14.222273 71.187144 2.390090 6.448830 -11.624830 4.524560 -28.163279 14.285464 -2.537587 -2.518668 -0.852065 9.934448 -9.104096 -0.984744 -3.214924 2.685553 0.989750 -0.336820 0.584970 0.207620 -6.508224 35.944003 14.775245 8.716451 11.064397 -10.299502 132.387565 66.062278 93.537178 2.362680 -0.896154 0.138830 0.054740 -0.459120 -0.238910 
-3.015770 16.648610 -1.346510 -5.047656 -14.446958 -21.736730 -15.641424 14.120758 3.287442 39.764971 2.222417 8.319999 -1.100017 9.942119 17.923372 0.795801 7.819269 1.963034 0.860620 0.473080 0.885130 17.712636 -10.166908 1.940126 -20.427331 3.322054 -7.567001 13.751970 -13.144431 39.219740 -1.329827 -7.134333 1.960227 -0.099990 -0.231990 0.290430 -1.913194 -3.797041 -7.871813 -23.587250 4.957988 24.178029 -1.853236 5.514393 23.049077 4.221483 -5.251740 -25.949481 -20.038604 12.709762 62.704998 5.941650 2.194060 -15.128460 3.558611 -24.647141 14.928814 -4.000982 2.780991 -0.155304 8.546338 -2.294585 -0.541478 -3.255622 2.548336 0.974420 -0.393200 0.594840 0.255660 -9.759889 34.285295 16.968057 -4.302993 -7.332550 -12.209154 173.739159 66.294946 153.829351 1.632133 -2.226581 0.162280 0.101110 -0.464550 -0.145320 
